# xmcd
#
# Track frame offsets: 
#        150
#        18044
#        33699
#        47303
#        59854
#        73764
#        93881
#        109056
#        127234
#        145764
#
# Disc length: 2186 seconds
#
# Revision: 0
# Processed by: cddbd v1.5.2PL0 Copyright (c) Steve Scherf et al.
# Submitted via: ExactAudioCopy v0.99pb4
#
DISCID=8c08880a
DTITLE=Vince Gill - These Days [CD1]
DYEAR=2006
DGENRE=Country
TTITLE0=Workin' On A Big Chill
TTITLE1=Love's Standin'
TTITLE2=Cowboy Up
TTITLE3=Sweet Thing
TTITLE4=Bet It All On You
TTITLE5=Nothin' For A Broken Heart
TTITLE6=Son Of A Ramblin' Man
TTITLE7=Smilin' Song
TTITLE8=The Rhythm Of The Pourin' Rain
TTITLE9=Nothin' Left To Say
EXTD=
EXTT0=
EXTT1=
EXTT2=
EXTT3=
EXTT4=
EXTT5=
EXTT6=
EXTT7=
EXTT8=
EXTT9=
PLAYORDER=
